<svg xmlns="http://www.w3.org/2000/svg" style="cursor: auto;" width="516" height="420" version="1.1"><g style="pointer-events: none;" transform="translate(258.5 209.5)"><g transform="translate(0)"><path fill="none" stroke="rgb(200, 200, 200)" stroke-width="1" d="M -587 0 L 587 0 M -380.757 -4 L -380.757 0 M -369.219 -4 L -369.219 0 M -357.681 -4 L -357.681 0 M -346.143 -4 L -346.143 0 M -334.605 -4 L -334.605 0 M -323.067 -4 L -323.067 0 M -311.529 -4 L -311.529 0 M -299.991 -4 L -299.991 0 M -288.453 -4 L -288.453 0 M -276.914 -4 L -276.914 0 M -265.376 -4 L -265.376 0 M -253.838 -4 L -253.838 0 M -242.3 -4 L -242.3 0 M -230.762 -4 L -230.762 0 M -219.224 -4 L -219.224 0 M -207.686 -4 L -207.686 0 M -196.148 -4 L -196.148 0 M -184.61 -4 L -184.61 0 M -173.072 -4 L -173.072 0 M -161.533 -4 L -161.533 0 M -149.995 -4 L -149.995 0 M -138.457 -4 L -138.457 0 M -126.919 -4 L -126.919 0 M -115.381 -4 L -115.381 0 M -103.843 -4 L -103.843 0 M -92.3048 -4 L -92.3048 0 M -80.7667 -4 L -80.7667 0 M -69.2286 -4 L -69.2286 0 M -57.6905 -4 L -57.6905 0 M -46.1524 -4 L -46.1524 0 M -34.6143 -4 L -34.6143 0 M -23.0762 -4 L -23.0762 0 M -11.5381 -4 L -11.5381 0 M 0 -4 L 0 0 M 11.5381 -4 L 11.5381 0 M 23.0762 -4 L 23.0762 0 M 34.6143 -4 L 34.6143 0 M 46.1524 -4 L 46.1524 0 M 57.6905 -4 L 57.6905 0 M 69.2286 -4 L 69.2286 0 M 80.7667 -4 L 80.7667 0 M 92.3048 -4 L 92.3048 0 M 103.843 -4 L 103.843 0 M 115.381 -4 L 115.381 0 M 126.919 -4 L 126.919 0 M 138.457 -4 L 138.457 0 M 149.995 -4 L 149.995 0 M 161.533 -4 L 161.533 0 M 173.072 -4 L 173.072 0 M 184.61 -4 L 184.61 0 M 196.148 -4 L 196.148 0 M 207.686 -4 L 207.686 0 M 219.224 -4 L 219.224 0 M 230.762 -4 L 230.762 0 M 242.3 -4 L 242.3 0 M 253.838 -4 L 253.838 0 M 265.376 -4 L 265.376 0 M 276.914 -4 L 276.914 0 M 288.453 -4 L 288.453 0 M 299.991 -4 L 299.991 0 M 311.529 -4 L 311.529 0 M 323.067 -4 L 323.067 0 M 334.605 -4 L 334.605 0 M 346.143 -4 L 346.143 0 M 357.681 -4 L 357.681 0 M 369.219 -4 L 369.219 0 M 380.757 -4 L 380.757 0" /><text style="width: 10px; text-align: center; font-family: 仿宋; font-size: 10px;" fill="rgb(180, 180, 180)" x="-354.143" y="-7">-3</text><text style="width: 10px; text-align: center; font-family: 仿宋; font-size: 10px;" fill="rgb(180, 180, 180)" x="-238.762" y="-7">-2</text><text style="width: 10px; text-align: center; font-family: 仿宋; font-size: 10px;" fill="rgb(180, 180, 180)" x="-123.381" y="-7">-1</text><text style="width: 10px; text-align: center; font-family: 仿宋; font-size: 10px;" fill="rgb(180, 180, 180)" x="-8" y="-7" /><text style="width: 10px; text-align: center; font-family: 仿宋; font-size: 10px;" fill="rgb(180, 180, 180)" x="112.381" y="-7">1</text><text style="width: 10px; text-align: center; font-family: 仿宋; font-size: 10px;" fill="rgb(180, 180, 180)" x="227.762" y="-7">2</text><text style="width: 10px; text-align: center; font-family: 仿宋; font-size: 10px;" fill="rgb(180, 180, 180)" x="343.143" y="-7">3</text></g><g><path fill="none" stroke="rgb(200, 200, 200)" stroke-width="1" d="M 0 -627.755 L 0 628.741 M 4 165.6 L 0 165.6 M 4 150.545 L 0 150.545 M 4 135.491 L 0 135.491 M 4 120.436 L 0 120.436 M 4 105.382 L 0 105.382 M 4 90.3272 L 0 90.3272 M 4 75.2726 L 0 75.2726 M 4 60.2181 L 0 60.2181 M 4 45.1636 L 0 45.1636 M 4 30.1091 L 0 30.1091 M 4 15.0545 L 0 15.0545 M 4 0 L 0 0 M 4 -15.0545 L 0 -15.0545 M 4 -30.1091 L 0 -30.1091 M 4 -45.1636 L 0 -45.1636 M 4 -60.2181 L 0 -60.2181 M 4 -75.2726 L 0 -75.2726 M 4 -90.3272 L 0 -90.3272 M 4 -105.382 L 0 -105.382 M 4 -120.436 L 0 -120.436 M 4 -135.491 L 0 -135.491 M 4 -150.545 L 0 -150.545 M 4 -165.6 L 0 -165.6" /><text style="font-family: 仿宋; font-size: 10px;" fill="rgb(180, 180, 180)" x="7" y="150.5453">-10</text><text style="font-family: 仿宋; font-size: 10px;" fill="rgb(180, 180, 180)" x="7" y="75.2726">-5</text><text style="font-family: 仿宋; font-size: 10px;" fill="rgb(180, 180, 180)" x="7" y="0" /><text style="font-family: 仿宋; font-size: 10px;" fill="rgb(180, 180, 180)" x="7" y="-75.2726">5</text><text style="font-family: 仿宋; font-size: 10px;" fill="rgb(180, 180, 180)" x="7" y="-150.5452">10</text></g><circle fill="rgb(77, 77, 77)" stroke="none" r="3" y="0" x="0" /><path fill="none" stroke="rgb(0, 114, 253)" stroke-width="1" d="M -322.5 328.741 L -322.177 327.755 L -321.855 326.772 L -321.533 325.791 L -321.21 324.811 L -320.888 323.834 L -320.565 322.859 L -320.242 321.885 L -319.92 320.914 L -319.598 319.944 L -319.275 318.977 L -318.953 318.011 L -318.63 317.047 L -318.307 316.086 L -317.985 315.126 L -317.663 314.168 L -317.34 313.212 L -317.017 312.258 L -316.695 311.306 L -316.372 310.356 L -316.05 309.408 L -315.728 308.462 L -315.405 307.518 L -315.082 306.575 L -314.76 305.635 L -314.438 304.696 L -314.115 303.76 L -313.793 302.825 L -313.47 301.892 L -313.147 300.962 L -312.825 300.033 L -312.503 299.106 L -312.18 298.181 L -311.858 297.257 L -311.535 296.336 L -311.212 295.417 L -310.89 294.499 L -310.568 293.584 L -310.245 292.67 L -309.922 291.759 L -309.6 290.849 L -309.277 289.941 L -308.955 289.035 L -308.633 288.13 L -308.31 287.228 L -307.987 286.328 L -307.665 285.429 L -307.342 284.533 L -307.02 283.638 L -306.698 282.745 L -306.375 281.854 L -306.052 280.965 L -305.73 280.078 L -305.408 279.192 L -305.085 278.309 L -304.763 277.427 L -304.44 276.547 L -304.117 275.669 L -303.795 274.793 L -303.473 273.919 L -303.15 273.047 L -302.828 272.176 L -302.505 271.308 L -302.182 270.441 L -301.86 269.576 L -301.538 268.713 L -301.215 267.851 L -300.892 266.992 L -300.57 266.134 L -300.247 265.279 L -299.925 264.425 L -299.603 263.573 L -299.28 262.723 L -298.957 261.874 L -298.635 261.028 L -298.313 260.183 L -297.99 259.34 L -297.668 258.499 L -297.345 257.659 L -297.022 256.822 L -296.7 255.986 L -296.378 255.153 L -296.055 254.321 L -295.733 253.49 L -295.41 252.662 L -295.087 251.835 L -294.765 251.011 L -294.443 250.188 L -294.12 249.366 L -293.797 248.547 L -293.475 247.729 L -293.152 246.914 L -292.83 246.1 L -292.508 245.287 L -292.185 244.477 L -291.862 243.668 L -291.54 242.861 L -291.217 242.056 L -290.895 241.253 L -290.573 240.452 L -290.25 239.652 L -289.927 238.854 L -289.605 238.058 L -289.283 237.263 L -288.96 236.471 L -288.638 235.68 L -288.315 234.891 L -287.992 234.103 L -287.67 233.318 L -287.348 232.534 L -287.025 231.752 L -286.703 230.972 L -286.38 230.193 L -286.057 229.416 L -285.735 228.641 L -285.413 227.868 L -285.09 227.096 L -284.767 226.327 L -284.445 225.558 L -284.122 224.792 L -283.8 224.028 L -283.478 223.265 L -283.155 222.504 L -282.832 221.744 L -282.51 220.986 L -282.188 220.231 L -281.865 219.476 L -281.543 218.724 L -281.22 217.973 L -280.897 217.224 L -280.575 216.477 L -280.253 215.731 L -279.93 214.987 L -279.608 214.245 L -279.285 213.505 L -278.962 212.766 L -278.64 212.029 L -278.318 211.293 L -277.995 210.56 L -277.672 209.828 L -277.35 209.097 L -277.027 208.369 L -276.705 207.642 L -276.383 206.917 L -276.06 206.193 L -275.737 205.472 L -275.415 204.751 L -275.092 204.033 L -274.77 203.316 L -274.448 202.601 L -274.125 201.888 L -273.802 201.176 L -273.48 200.466 L -273.158 199.758 L -272.835 199.051 L -272.513 198.346 L -272.19 197.643 L -271.867 196.941 L -271.545 196.241 L -271.223 195.543 L -270.9 194.846 L -270.578 194.151 L -270.255 193.457 L -269.932 192.766 L -269.61 192.076 L -269.288 191.387 L -268.965 190.7 L -268.642 190.015 L -268.32 189.332 L -267.997 188.65 L -267.675 187.97 L -267.353 187.291 L -267.03 186.614 L -266.707 185.939 L -266.385 185.265 L -266.063 184.593 L -265.74 183.923 L -265.418 183.254 L -265.095 182.587 L -264.772 181.921 L -264.45 181.257 L -264.128 180.595 L -263.805 179.934 L -263.483 179.275 L -263.16 178.617 L -262.837 177.962 L -262.515 177.307 L -262.193 176.655 L -261.87 176.004 L -261.547 175.354 L -261.225 174.706 L -260.902 174.06 L -260.58 173.415 L -260.258 172.772 L -259.935 172.131 L -259.612 171.491 L -259.29 170.853 L -258.967 170.216 L -258.645 169.581 L -258.323 168.947 L -258 168.315 L -257.677 167.685 L -257.355 167.056 L -257.033 166.429 L -256.71 165.803 L -256.388 165.179 L -256.065 164.556 L -255.742 163.935 L -255.42 163.316 L -255.098 162.698 L -254.775 162.082 L -254.452 161.467 L -254.13 160.854 L -253.807 160.242 L -253.485 159.632 L -253.163 159.024 L -252.84 158.417 L -252.518 157.812 L -252.195 157.208 L -251.872 156.605 L -251.55 156.005 L -251.227 155.405 L -250.905 154.808 L -250.583 154.211 L -250.26 153.617 L -249.938 153.024 L -249.615 152.432 L -249.292 151.842 L -248.97 151.253 L -248.648 150.666 L -248.325 150.081 L -248.003 149.497 L -247.68 148.915 L -247.357 148.334 L -247.035 147.754 L -246.712 147.176 L -246.39 146.6 L -246.068 146.025 L -245.745 145.452 L -245.423 144.88 L -245.1 144.309 L -244.777 143.74 L -244.455 143.173 L -244.133 142.607 L -243.81 142.043 L -243.488 141.48 L -243.165 140.918 L -242.842 140.358 L -242.52 139.8 L -242.197 139.243 L -241.875 138.687 L -241.553 138.133 L -241.23 137.581 L -240.908 137.03 L -240.585 136.48 L -240.262 135.932 L -239.94 135.386 L -239.617 134.84 L -239.295 134.297 L -238.973 133.754 L -238.65 133.214 L -238.327 132.674 L -238.005 132.136 L -237.682 131.6 L -237.36 131.065 L -237.038 130.532 L -236.715 129.999 L -236.393 129.469 L -236.07 128.94 L -235.747 128.412 L -235.425 127.886 L -235.102 127.361 L -234.78 126.837 L -234.458 126.315 L -234.135 125.795 L -233.813 125.276 L -233.49 124.758 L -233.167 124.242 L -232.845 123.727 L -232.523 123.214 L -232.2 122.702 L -231.878 122.191 L -231.555 121.682 L -231.232 121.174 L -230.91 120.668 L -230.587 120.163 L -230.265 119.66 L -229.943 119.158 L -229.62 118.657 L -229.298 118.158 L -228.975 117.66 L -228.652 117.163 L -228.33 116.668 L -228.008 116.175 L -227.685 115.682 L -227.363 115.192 L -227.04 114.702 L -226.717 114.214 L -226.395 113.727 L -226.072 113.242 L -225.75 112.758 L -225.428 112.275 L -225.105 111.794 L -224.783 111.314 L -224.46 110.836 L -224.137 110.359 L -223.815 109.883 L -223.492 109.409 L -223.17 108.936 L -222.848 108.464 L -222.525 107.994 L -222.202 107.525 L -221.88 107.058 L -221.557 106.592 L -221.235 106.127 L -220.913 105.664 L -220.59 105.201 L -220.268 104.741 L -219.945 104.281 L -219.622 103.823 L -219.3 103.367 L -218.977 102.911 L -218.655 102.457 L -218.333 102.005 L -218.01 101.553 L -217.688 101.103 L -217.365 100.654 L -217.042 100.207 L -216.72 99.7611 L -216.398 99.3164 L -216.075 98.873 L -215.753 98.431 L -215.43 97.9902 L -215.107 97.5508 L -214.785 97.1127 L -214.462 96.6759 L -214.14 96.2404 L -213.818 95.8063 L -213.495 95.3734 L -213.173 94.9419 L -212.85 94.5116 L -212.527 94.0827 L -212.205 93.655 L -211.883 93.2287 L -211.56 92.8036 L -211.238 92.3799 L -210.915 91.9574 L -210.592 91.5362 L -210.27 91.1163 L -209.947 90.6977 L -209.625 90.2804 L -209.303 89.8644 L -208.98 89.4496 L -208.658 89.0361 L -208.335 88.6239 L -208.012 88.213 L -207.69 87.8033 L -207.367 87.3949 L -207.045 86.9878 L -206.723 86.582 L -206.4 86.1774 L -206.077 85.7741 L -205.755 85.372 L -205.432 84.9712 L -205.11 84.5716 L -204.788 84.1733 L -204.465 83.7763 L -204.143 83.3805 L -203.82 82.986 L -203.497 82.5927 L -203.175 82.2006 L -202.852 81.8098 L -202.53 81.4202 L -202.208 81.0319 L -201.885 80.6448 L -201.563 80.2589 L -201.24 79.8743 L -200.917 79.4909 L -200.595 79.1087 L -200.273 78.7278 L -199.95 78.3481 L -199.628 77.9696 L -199.305 77.5923 L -198.982 77.2163 L -198.66 76.8414 L -198.337 76.4678 L -198.015 76.0954 L -197.693 75.7242 L -197.37 75.3542 L -197.048 74.9855 L -196.725 74.6179 L -196.402 74.2515 L -196.08 73.8863 L -195.758 73.5224 L -195.435 73.1596 L -195.113 72.798 L -194.79 72.4376 L -194.467 72.0784 L -194.145 71.7204 L -193.822 71.3636 L -193.5 71.008 L -193.178 70.6535 L -192.855 70.3003 L -192.533 69.9482 L -192.21 69.5973 L -191.887 69.2475 L -191.565 68.899 L -191.242 68.5516 L -190.92 68.2054 L -190.598 67.8603 L -190.275 67.5164 L -189.952 67.1737 L -189.63 66.8321 L -189.307 66.4917 L -188.985 66.1525 L -188.663 65.8144 L -188.34 65.4775 L -188.018 65.1417 L -187.695 64.8071 L -187.372 64.4736 L -187.05 64.1412 L -186.727 63.81 L -186.405 63.48 L -186.083 63.1511 L -185.76 62.8233 L -185.438 62.4967 L -185.115 62.1712 L -184.792 61.8468 L -184.47 61.5236 L -184.148 61.2014 L -183.825 60.8805 L -183.503 60.5606 L -183.18 60.2419 L -182.857 59.9242 L -182.535 59.6077 L -182.212 59.2924 L -181.89 58.9781 L -181.568 58.6649 L -181.245 58.3529 L -180.923 58.0419 L -180.6 57.7321 L -180.277 57.4234 L -179.955 57.1158 L -179.633 56.8092 L -179.31 56.5038 L -178.988 56.1995 L -178.665 55.8962 L -178.342 55.5941 L -178.02 55.2931 L -177.697 54.9931 L -177.375 54.6942 L -177.053 54.3964 L -176.73 54.0997 L -176.408 53.8041 L -176.085 53.5095 L -175.762 53.2161 L -175.44 52.9237 L -175.117 52.6324 L -174.795 52.3421 L -174.473 52.0529 L -174.15 51.7648 L -173.827 51.4778 L -173.505 51.1918 L -173.182 50.9068 L -172.86 50.623 L -172.538 50.3402 L -172.215 50.0584 L -171.893 49.7777 L -171.57 49.4981 L -171.247 49.2195 L -170.925 48.9419 L -170.602 48.6654 L -170.28 48.3899 L -169.958 48.1155 L -169.635 47.8421 L -169.313 47.5698 L -168.99 47.2985 L -168.667 47.0282 L -168.345 46.759 L -168.023 46.4907 L -167.7 46.2236 L -167.378 45.9574 L -167.055 45.6923 L -166.732 45.4281 L -166.41 45.165 L -166.087 44.903 L -165.765 44.6419 L -165.443 44.3819 L -165.12 44.1228 L -164.798 43.8648 L -164.475 43.6078 L -164.152 43.3518 L -163.83 43.0967 L -163.508 42.8427 L -163.185 42.5897 L -162.863 42.3377 L -162.54 42.0867 L -162.217 41.8367 L -161.895 41.5877 L -161.572 41.3396 L -161.25 41.0926 L -160.928 40.8465 L -160.605 40.6014 L -160.283 40.3573 L -159.96 40.1142 L -159.637 39.8721 L -159.315 39.6309 L -158.992 39.3907 L -158.67 39.1515 L -158.348 38.9133 L -158.025 38.676 L -157.702 38.4397 L -157.38 38.2044 L -157.057 37.97 L -156.735 37.7365 L -156.413 37.5041 L -156.09 37.2726 L -155.768 37.042 L -155.445 36.8124 L -155.122 36.5838 L -154.8 36.3561 L -154.477 36.1293 L -154.155 35.9035 L -153.833 35.6787 L -153.51 35.4547 L -153.188 35.2317 L -152.865 35.0097 L -152.542 34.7886 L -152.22 34.5684 L -151.898 34.3492 L -151.575 34.1308 L -151.253 33.9134 L -150.93 33.697 L -150.607 33.4814 L -150.285 33.2668 L -149.962 33.0531 L -149.64 32.8403 L -149.318 32.6284 L -148.995 32.4175 L -148.673 32.2074 L -148.35 31.9983 L -148.027 31.7901 L -147.705 31.5827 L -147.383 31.3763 L -147.06 31.1708 L -146.738 30.9662 L -146.415 30.7625 L -146.092 30.5596 L -145.77 30.3577 L -145.447 30.1566 L -145.125 29.9565 L -144.803 29.7572 L -144.48 29.5588 L -144.158 29.3613 L -143.835 29.1647 L -143.512 28.969 L -143.19 28.7741 L -142.867 28.5802 L -142.545 28.387 L -142.223 28.1948 L -141.9 28.0034 L -141.577 27.8129 L -141.255 27.6233 L -140.932 27.4345 L -140.61 27.2466 L -140.288 27.0596 L -139.965 26.8734 L -139.643 26.6881 L -139.32 26.5036 L -138.997 26.32 L -138.675 26.1372 L -138.352 25.9553 L -138.03 25.7742 L -137.708 25.5939 L -137.385 25.4145 L -137.063 25.236 L -136.74 25.0583 L -136.417 24.8814 L -136.095 24.7053 L -135.773 24.5301 L -135.45 24.3557 L -135.128 24.1822 L -134.805 24.0095 L -134.482 23.8375 L -134.16 23.6665 L -133.837 23.4962 L -133.515 23.3268 L -133.193 23.1581 L -132.87 22.9903 L -132.548 22.8233 L -132.225 22.6571 L -131.902 22.4918 L -131.58 22.3272 L -131.258 22.1634 L -130.935 22.0004 L -130.613 21.8383 L -130.29 21.6769 L -129.967 21.5163 L -129.645 21.3566 L -129.322 21.1976 L -129 21.0394 L -128.678 20.882 L -128.355 20.7254 L -128.033 20.5696 L -127.71 20.4145 L -127.387 20.2602 L -127.065 20.1068 L -126.743 19.954 L -126.42 19.8021 L -126.098 19.651 L -125.775 19.5006 L -125.452 19.3509 L -125.13 19.2021 L -124.808 19.054 L -124.485 18.9067 L -124.162 18.7601 L -123.84 18.6143 L -123.518 18.4693 L -123.195 18.325 L -122.872 18.1814 L -122.55 18.0387 L -122.228 17.8966 L -121.905 17.7553 L -121.582 17.6148 L -121.26 17.475 L -120.938 17.3359 L -120.615 17.1976 L -120.293 17.06 L -119.97 16.9232 L -119.647 16.7871 L -119.325 16.6517 L -119.003 16.517 L -118.68 16.3831 L -118.357 16.2499 L -118.035 16.1175 L -117.713 15.9857 L -117.39 15.8547 L -117.067 15.7244 L -116.745 15.5948 L -116.423 15.4659 L -116.1 15.3377 L -115.777 15.2103 L -115.455 15.0835 L -115.132 14.9575 L -114.81 14.8321 L -114.488 14.7075 L -114.165 14.5835 L -113.842 14.4603 L -113.52 14.3378 L -113.198 14.2159 L -112.875 14.0948 L -112.552 13.9743 L -112.23 13.8545 L -111.908 13.7354 L -111.585 13.617 L -111.262 13.4993 L -110.94 13.3822 L -110.618 13.2659 L -110.295 13.1502 L -109.973 13.0352 L -109.65 12.9208 L -109.327 12.8071 L -109.005 12.6941 L -108.683 12.5818 L -108.36 12.4701 L -108.037 12.3591 L -107.715 12.2488 L -107.393 12.1391 L -107.07 12.0301 L -106.747 11.9217 L -106.425 11.814 L -106.103 11.7069 L -105.78 11.6005 L -105.457 11.4947 L -105.135 11.3895 L -104.813 11.285 L -104.49 11.1812 L -104.168 11.078 L -103.845 10.9754 L -103.522 10.8735 L -103.2 10.7722 L -102.878 10.6715 L -102.555 10.5715 L -102.232 10.472 L -101.91 10.3732 L -101.588 10.2751 L -101.265 10.1775 L -100.942 10.0806 L -100.62 9.98429 L -100.298 9.88859 L -99.975 9.79351 L -99.6525 9.69904 L -99.33 9.60518 L -99.0075 9.51193 L -98.685 9.41928 L -98.3625 9.32723 L -98.04 9.23579 L -97.7175 9.14495 L -97.395 9.0547 L -97.0725 8.96505 L -96.75 8.876 L -96.4275 8.78753 L -96.105 8.69966 L -95.7825 8.61237 L -95.46 8.52567 L -95.1375 8.43955 L -94.815 8.35402 L -94.4925 8.26906 L -94.17 8.18468 L -93.8475 8.10088 L -93.525 8.01766 L -93.2025 7.935 L -92.88 7.85291 L -92.5575 7.7714 L -92.235 7.69044 L -91.9125 7.61006 L -91.59 7.53023 L -91.2675 7.45097 L -90.945 7.37226 L -90.6225 7.29411 L -90.3 7.21651 L -89.9775 7.13947 L -89.655 7.06298 L -89.3325 6.98703 L -89.01 6.91163 L -88.6875 6.83678 L -88.365 6.76247 L -88.0425 6.68869 L -87.72 6.61546 L -87.3975 6.54276 L -87.075 6.4706 L -86.7525 6.39897 L -86.43 6.32787 L -86.1075 6.2573 L -85.785 6.18726 L -85.4625 6.11774 L -85.14 6.04874 L -84.8175 5.98027 L -84.495 5.91231 L -84.1725 5.84487 L -83.85 5.77795 L -83.5275 5.71153 L -83.205 5.64563 L -82.8825 5.58024 L -82.56 5.51535 L -82.2375 5.45097 L -81.915 5.38709 L -81.5925 5.32372 L -81.27 5.26084 L -80.9475 5.19846 L -80.625 5.13657 L -80.3025 5.07518 L -79.98 5.01428 L -79.6575 4.95387 L -79.335 4.89394 L -79.0125 4.8345 L -78.69 4.77554 L -78.3675 4.71707 L -78.045 4.65907 L -77.7225 4.60155 L -77.4 4.54451 L -77.0775 4.48794 L -76.755 4.43184 L -76.4325 4.37621 L -76.11 4.32105 L -75.7875 4.26635 L -75.465 4.21212 L -75.1425 4.15835 L -74.82 4.10504 L -74.4975 4.05219 L -74.175 3.99979 L -73.8525 3.94784 L -73.53 3.89635 L -73.2075 3.84531 L -72.885 3.79471 L -72.5625 3.74456 L -72.24 3.69486 L -71.9175 3.64559 L -71.595 3.59677 L -71.2725 3.54838 L -70.95 3.50043 L -70.6275 3.45291 L -70.305 3.40583 L -69.9825 3.35917 L -69.66 3.31295 L -69.3375 3.26715 L -69.015 3.22177 L -68.6925 3.17682 L -68.37 3.13228 L -68.0475 3.08817 L -67.725 3.04447 L -67.4025 3.00118 L -67.08 2.95831 L -66.7575 2.91584 L -66.435 2.87379 L -66.1125 2.83214 L -65.79 2.7909 L -65.4675 2.75006 L -65.145 2.70961 L -64.8225 2.66957 L -64.5 2.62993 L -64.1775 2.59067 L -63.855 2.55181 L -63.5325 2.51334 L -63.21 2.47526 L -62.8875 2.43757 L -62.565 2.40026 L -62.2425 2.36334 L -61.92 2.32679 L -61.5975 2.29062 L -61.275 2.25483 L -60.9525 2.21942 L -60.63 2.18437 L -60.3075 2.1497 L -59.985 2.1154 L -59.6625 2.08146 L -59.34 2.04789 L -59.0175 2.01468 L -58.695 1.98184 L -58.3725 1.94935 L -58.05 1.91722 L -57.7275 1.88544 L -57.405 1.85402 L -57.0825 1.82294 L -56.76 1.79222 L -56.4375 1.76184 L -56.115 1.73181 L -55.7925 1.70213 L -55.47 1.67278 L -55.1475 1.64377 L -54.825 1.6151 L -54.5025 1.58677 L -54.18 1.55877 L -53.8575 1.5311 L -53.535 1.50376 L -53.2125 1.47674 L -52.89 1.45006 L -52.5675 1.42369 L -52.245 1.39765 L -51.9225 1.37193 L -51.6 1.34652 L -51.2775 1.32143 L -50.955 1.29666 L -50.6325 1.27219 L -50.31 1.24804 L -49.9875 1.22419 L -49.665 1.20065 L -49.3425 1.17741 L -49.02 1.15447 L -48.6975 1.13184 L -48.375 1.1095 L -48.0525 1.08746 L -47.73 1.06571 L -47.4075 1.04425 L -47.085 1.02309 L -46.7625 1.00221 L -46.44 0.981614 L -46.1175 0.961306 L -45.795 0.941279 L -45.4725 0.921533 L -45.15 0.902064 L -44.8275 0.882872 L -44.505 0.863954 L -44.1825 0.845308 L -43.86 0.826933 L -43.5375 0.808825 L -43.215 0.790984 L -42.8925 0.773407 L -42.57 0.756093 L -42.2475 0.739039 L -41.925 0.722243 L -41.6025 0.705704 L -41.28 0.689419 L -40.9575 0.673387 L -40.635 0.657605 L -40.3125 0.642072 L -39.99 0.626785 L -39.6675 0.611743 L -39.345 0.596943 L -39.0225 0.582384 L -38.7 0.568064 L -38.3775 0.55398 L -38.055 0.540131 L -37.7325 0.526515 L -37.41 0.51313 L -37.0875 0.499973 L -36.765 0.487044 L -36.4425 0.474339 L -36.12 0.461857 L -35.7975 0.449596 L -35.475 0.437554 L -35.1525 0.425729 L -34.83 0.414118 L -34.5075 0.402721 L -34.185 0.391535 L -33.8625 0.380558 L -33.54 0.369788 L -33.2175 0.359224 L -32.895 0.348862 L -32.5725 0.338702 L -32.25 0.328741 L -31.9275 0.318977 L -31.605 0.309408 L -31.2825 0.300033 L -30.96 0.290849 L -30.6375 0.281854 L -30.315 0.273047 L -29.9925 0.264425 L -29.67 0.255986 L -29.3475 0.247729 L -29.025 0.239652 L -28.7025 0.231752 L -28.38 0.224028 L -28.0575 0.216477 L -27.735 0.209097 L -27.4125 0.201888 L -27.09 0.194846 L -26.7675 0.18797 L -26.445 0.181257 L -26.1225 0.174706 L -25.8 0.168315 L -25.4775 0.162082 L -25.155 0.156005 L -24.8325 0.150081 L -24.51 0.144309 L -24.1875 0.138687 L -23.865 0.133214 L -23.5425 0.127886 L -23.22 0.122702 L -22.8975 0.11766 L -22.575 0.112758 L -22.2525 0.107994 L -21.93 0.103367 L -21.6075 0.098873 L -21.285 0.0945116 L -20.9625 0.0902804 L -20.64 0.0861774 L -20.3175 0.0822006 L -19.995 0.0783481 L -19.6725 0.0746179 L -19.35 0.071008 L -19.0275 0.0675164 L -18.705 0.0641412 L -18.3825 0.0608805 L -18.06 0.0577321 L -17.7375 0.0546942 L -17.415 0.0517648 L -17.0925 0.0489419 L -16.77 0.0462236 L -16.4475 0.0436078 L -16.125 0.0410926 L -15.8025 0.038676 L -15.48 0.0363561 L -15.1575 0.0341308 L -14.835 0.0319983 L -14.5125 0.0299565 L -14.19 0.0280034 L -13.8675 0.0261372 L -13.545 0.0243557 L -13.2225 0.0226571 L -12.9 0.0210394 L -12.5775 0.0195006 L -12.255 0.0180387 L -11.9325 0.0166517 L -11.61 0.0153377 L -11.2875 0.0140948 L -10.965 0.0129208 L -10.6425 0.011814 L -10.32 0.0107722 L -9.9975 0.00979351 L -9.675 0.008876 L -9.3525 0.00801765 L -9.03 0.00721651 L -8.7075 0.0064706 L -8.385 0.00577795 L -8.0625 0.00513657 L -7.74 0.00454451 L -7.4175 0.00399979 L -7.095 0.00350043 L -6.7725 0.00304447 L -6.45 0.00262993 L -6.1275 0.00225483 L -5.805 0.00191722 L -5.4825 0.0016151 L -5.16 0.00134652 L -4.8375 0.0011095 L -4.515 0.000902064 L -4.1925 0.000722243 L -3.87 0.000568064 L -3.5475 0.000437554 L -3.225 0.000328741 L -2.9025 0.000239652 L -2.58 0.000168315 L -2.2575 0.000112758 L -1.935 7.1008e-005 L -1.6125 4.10926e-005 L -1.29 2.10394e-005 L -0.9675 8.876e-006 L -0.645 2.62992e-006 L -0.3225 3.28741e-007 L 0 0 L 0.3225 -3.28741e-007 L 0.645 -2.62992e-006 L 0.9675 -8.876e-006 L 1.29 -2.10394e-005 L 1.6125 -4.10926e-005 L 1.935 -7.1008e-005 L 2.2575 -0.000112758 L 2.58 -0.000168315 L 2.9025 -0.000239652 L 3.225 -0.000328741 L 3.5475 -0.000437554 L 3.87 -0.000568064 L 4.1925 -0.000722243 L 4.515 -0.000902064 L 4.8375 -0.0011095 L 5.16 -0.00134652 L 5.4825 -0.0016151 L 5.805 -0.00191722 L 6.1275 -0.00225483 L 6.45 -0.00262993 L 6.7725 -0.00304447 L 7.095 -0.00350043 L 7.4175 -0.00399979 L 7.74 -0.00454451 L 8.0625 -0.00513657 L 8.385 -0.00577795 L 8.7075 -0.0064706 L 9.03 -0.00721651 L 9.3525 -0.00801765 L 9.675 -0.008876 L 9.9975 -0.00979351 L 10.32 -0.0107722 L 10.6425 -0.011814 L 10.965 -0.0129208 L 11.2875 -0.0140948 L 11.61 -0.0153377 L 11.9325 -0.0166517 L 12.255 -0.0180387 L 12.5775 -0.0195006 L 12.9 -0.0210394 L 13.2225 -0.0226571 L 13.545 -0.0243557 L 13.8675 -0.0261372 L 14.19 -0.0280034 L 14.5125 -0.0299565 L 14.835 -0.0319983 L 15.1575 -0.0341308 L 15.48 -0.0363561 L 15.8025 -0.038676 L 16.125 -0.0410926 L 16.4475 -0.0436078 L 16.77 -0.0462236 L 17.0925 -0.0489419 L 17.415 -0.0517648 L 17.7375 -0.0546942 L 18.06 -0.0577321 L 18.3825 -0.0608805 L 18.705 -0.0641412 L 19.0275 -0.0675164 L 19.35 -0.071008 L 19.6725 -0.0746179 L 19.995 -0.0783481 L 20.3175 -0.0822006 L 20.64 -0.0861774 L 20.9625 -0.0902804 L 21.285 -0.0945116 L 21.6075 -0.098873 L 21.93 -0.103367 L 22.2525 -0.107994 L 22.575 -0.112758 L 22.8975 -0.11766 L 23.22 -0.122702 L 23.5425 -0.127886 L 23.865 -0.133214 L 24.1875 -0.138687 L 24.51 -0.144309 L 24.8325 -0.150081 L 25.155 -0.156005 L 25.4775 -0.162082 L 25.8 -0.168315 L 26.1225 -0.174706 L 26.445 -0.181257 L 26.7675 -0.18797 L 27.09 -0.194846 L 27.4125 -0.201888 L 27.735 -0.209097 L 28.0575 -0.216477 L 28.38 -0.224028 L 28.7025 -0.231752 L 29.025 -0.239652 L 29.3475 -0.247729 L 29.67 -0.255986 L 29.9925 -0.264425 L 30.315 -0.273047 L 30.6375 -0.281854 L 30.96 -0.290849 L 31.2825 -0.300033 L 31.605 -0.309408 L 31.9275 -0.318977 L 32.25 -0.328741 L 32.5725 -0.338702 L 32.895 -0.348862 L 33.2175 -0.359224 L 33.54 -0.369788 L 33.8625 -0.380558 L 34.185 -0.391535 L 34.5075 -0.402721 L 34.83 -0.414118 L 35.1525 -0.425729 L 35.475 -0.437554 L 35.7975 -0.449596 L 36.12 -0.461857 L 36.4425 -0.474339 L 36.765 -0.487044 L 37.0875 -0.499973 L 37.41 -0.51313 L 37.7325 -0.526515 L 38.055 -0.540131 L 38.3775 -0.55398 L 38.7 -0.568064 L 39.0225 -0.582384 L 39.345 -0.596943 L 39.6675 -0.611743 L 39.99 -0.626785 L 40.3125 -0.642072 L 40.635 -0.657605 L 40.9575 -0.673387 L 41.28 -0.689419 L 41.6025 -0.705704 L 41.925 -0.722243 L 42.2475 -0.739039 L 42.57 -0.756093 L 42.8925 -0.773407 L 43.215 -0.790984 L 43.5375 -0.808825 L 43.86 -0.826933 L 44.1825 -0.845308 L 44.505 -0.863954 L 44.8275 -0.882872 L 45.15 -0.902064 L 45.4725 -0.921533 L 45.795 -0.941279 L 46.1175 -0.961306 L 46.44 -0.981614 L 46.7625 -1.00221 L 47.085 -1.02309 L 47.4075 -1.04425 L 47.73 -1.06571 L 48.0525 -1.08746 L 48.375 -1.1095 L 48.6975 -1.13184 L 49.02 -1.15447 L 49.3425 -1.17741 L 49.665 -1.20065 L 49.9875 -1.22419 L 50.31 -1.24804 L 50.6325 -1.27219 L 50.955 -1.29666 L 51.2775 -1.32143 L 51.6 -1.34652 L 51.9225 -1.37193 L 52.245 -1.39765 L 52.5675 -1.42369 L 52.89 -1.45006 L 53.2125 -1.47674 L 53.535 -1.50376 L 53.8575 -1.5311 L 54.18 -1.55877 L 54.5025 -1.58677 L 54.825 -1.6151 L 55.1475 -1.64377 L 55.47 -1.67278 L 55.7925 -1.70213 L 56.115 -1.73181 L 56.4375 -1.76184 L 56.76 -1.79222 L 57.0825 -1.82294 L 57.405 -1.85402 L 57.7275 -1.88544 L 58.05 -1.91722 L 58.3725 -1.94935 L 58.695 -1.98184 L 59.0175 -2.01468 L 59.34 -2.04789 L 59.6625 -2.08146 L 59.985 -2.1154 L 60.3075 -2.1497 L 60.63 -2.18437 L 60.9525 -2.21942 L 61.275 -2.25483 L 61.5975 -2.29062 L 61.92 -2.32679 L 62.2425 -2.36334 L 62.565 -2.40026 L 62.8875 -2.43757 L 63.21 -2.47526 L 63.5325 -2.51334 L 63.855 -2.55181 L 64.1775 -2.59067 L 64.5 -2.62993 L 64.8225 -2.66957 L 65.145 -2.70961 L 65.4675 -2.75006 L 65.79 -2.7909 L 66.1125 -2.83214 L 66.435 -2.87379 L 66.7575 -2.91584 L 67.08 -2.95831 L 67.4025 -3.00118 L 67.725 -3.04447 L 68.0475 -3.08817 L 68.37 -3.13228 L 68.6925 -3.17682 L 69.015 -3.22177 L 69.3375 -3.26715 L 69.66 -3.31295 L 69.9825 -3.35917 L 70.305 -3.40583 L 70.6275 -3.45291 L 70.95 -3.50043 L 71.2725 -3.54838 L 71.595 -3.59677 L 71.9175 -3.64559 L 72.24 -3.69486 L 72.5625 -3.74456 L 72.885 -3.79471 L 73.2075 -3.84531 L 73.53 -3.89635 L 73.8525 -3.94784 L 74.175 -3.99979 L 74.4975 -4.05219 L 74.82 -4.10504 L 75.1425 -4.15835 L 75.465 -4.21212 L 75.7875 -4.26635 L 76.11 -4.32105 L 76.4325 -4.37621 L 76.755 -4.43184 L 77.0775 -4.48794 L 77.4 -4.54451 L 77.7225 -4.60155 L 78.045 -4.65907 L 78.3675 -4.71707 L 78.69 -4.77554 L 79.0125 -4.8345 L 79.335 -4.89394 L 79.6575 -4.95387 L 79.98 -5.01428 L 80.3025 -5.07518 L 80.625 -5.13657 L 80.9475 -5.19846 L 81.27 -5.26084 L 81.5925 -5.32372 L 81.915 -5.38709 L 82.2375 -5.45097 L 82.56 -5.51535 L 82.8825 -5.58024 L 83.205 -5.64563 L 83.5275 -5.71153 L 83.85 -5.77795 L 84.1725 -5.84487 L 84.495 -5.91231 L 84.8175 -5.98027 L 85.14 -6.04874 L 85.4625 -6.11774 L 85.785 -6.18726 L 86.1075 -6.2573 L 86.43 -6.32787 L 86.7525 -6.39897 L 87.075 -6.4706 L 87.3975 -6.54276 L 87.72 -6.61546 L 88.0425 -6.68869 L 88.365 -6.76247 L 88.6875 -6.83678 L 89.01 -6.91163 L 89.3325 -6.98703 L 89.655 -7.06298 L 89.9775 -7.13947 L 90.3 -7.21651 L 90.6225 -7.29411 L 90.945 -7.37226 L 91.2675 -7.45097 L 91.59 -7.53023 L 91.9125 -7.61006 L 92.235 -7.69044 L 92.5575 -7.7714 L 92.88 -7.85291 L 93.2025 -7.935 L 93.525 -8.01766 L 93.8475 -8.10088 L 94.17 -8.18468 L 94.4925 -8.26906 L 94.815 -8.35402 L 95.1375 -8.43955 L 95.46 -8.52567 L 95.7825 -8.61237 L 96.105 -8.69966 L 96.4275 -8.78753 L 96.75 -8.876 L 97.0725 -8.96505 L 97.395 -9.0547 L 97.7175 -9.14495 L 98.04 -9.23579 L 98.3625 -9.32723 L 98.685 -9.41928 L 99.0075 -9.51193 L 99.33 -9.60518 L 99.6525 -9.69904 L 99.975 -9.79351 L 100.298 -9.88859 L 100.62 -9.98429 L 100.942 -10.0806 L 101.265 -10.1775 L 101.588 -10.2751 L 101.91 -10.3732 L 102.232 -10.472 L 102.555 -10.5715 L 102.878 -10.6715 L 103.2 -10.7722 L 103.522 -10.8735 L 103.845 -10.9754 L 104.168 -11.078 L 104.49 -11.1812 L 104.813 -11.285 L 105.135 -11.3895 L 105.457 -11.4947 L 105.78 -11.6005 L 106.103 -11.7069 L 106.425 -11.814 L 106.747 -11.9217 L 107.07 -12.0301 L 107.393 -12.1391 L 107.715 -12.2488 L 108.037 -12.3591 L 108.36 -12.4701 L 108.683 -12.5818 L 109.005 -12.6941 L 109.327 -12.8071 L 109.65 -12.9208 L 109.973 -13.0352 L 110.295 -13.1502 L 110.618 -13.2659 L 110.94 -13.3822 L 111.262 -13.4993 L 111.585 -13.617 L 111.908 -13.7354 L 112.23 -13.8545 L 112.552 -13.9743 L 112.875 -14.0948 L 113.198 -14.2159 L 113.52 -14.3378 L 113.842 -14.4603 L 114.165 -14.5835 L 114.488 -14.7075 L 114.81 -14.8321 L 115.132 -14.9575 L 115.455 -15.0835 L 115.777 -15.2103 L 116.1 -15.3377 L 116.423 -15.4659 L 116.745 -15.5948 L 117.067 -15.7244 L 117.39 -15.8547 L 117.713 -15.9857 L 118.035 -16.1175 L 118.357 -16.2499 L 118.68 -16.3831 L 119.003 -16.517 L 119.325 -16.6517 L 119.647 -16.7871 L 119.97 -16.9232 L 120.293 -17.06 L 120.615 -17.1976 L 120.938 -17.3359 L 121.26 -17.475 L 121.582 -17.6148 L 121.905 -17.7553 L 122.228 -17.8966 L 122.55 -18.0387 L 122.872 -18.1814 L 123.195 -18.325 L 123.518 -18.4693 L 123.84 -18.6143 L 124.162 -18.7601 L 124.485 -18.9067 L 124.808 -19.054 L 125.13 -19.2021 L 125.452 -19.3509 L 125.775 -19.5006 L 126.098 -19.651 L 126.42 -19.8021 L 126.743 -19.954 L 127.065 -20.1068 L 127.387 -20.2602 L 127.71 -20.4145 L 128.033 -20.5696 L 128.355 -20.7254 L 128.678 -20.882 L 129 -21.0394 L 129.322 -21.1976 L 129.645 -21.3566 L 129.967 -21.5163 L 130.29 -21.6769 L 130.613 -21.8383 L 130.935 -22.0004 L 131.258 -22.1634 L 131.58 -22.3272 L 131.902 -22.4918 L 132.225 -22.6571 L 132.548 -22.8233 L 132.87 -22.9903 L 133.193 -23.1581 L 133.515 -23.3268 L 133.837 -23.4962 L 134.16 -23.6665 L 134.482 -23.8375 L 134.805 -24.0095 L 135.128 -24.1822 L 135.45 -24.3557 L 135.773 -24.5301 L 136.095 -24.7053 L 136.417 -24.8814 L 136.74 -25.0583 L 137.063 -25.236 L 137.385 -25.4145 L 137.708 -25.5939 L 138.03 -25.7742 L 138.352 -25.9553 L 138.675 -26.1372 L 138.997 -26.32 L 139.32 -26.5036 L 139.643 -26.6881 L 139.965 -26.8734 L 140.288 -27.0596 L 140.61 -27.2466 L 140.932 -27.4345 L 141.255 -27.6233 L 141.577 -27.8129 L 141.9 -28.0034 L 142.223 -28.1948 L 142.545 -28.387 L 142.867 -28.5802 L 143.19 -28.7741 L 143.512 -28.969 L 143.835 -29.1647 L 144.158 -29.3613 L 144.48 -29.5588 L 144.803 -29.7572 L 145.125 -29.9565 L 145.447 -30.1566 L 145.77 -30.3577 L 146.092 -30.5596 L 146.415 -30.7625 L 146.738 -30.9662 L 147.06 -31.1708 L 147.383 -31.3763 L 147.705 -31.5827 L 148.027 -31.7901 L 148.35 -31.9983 L 148.673 -32.2074 L 148.995 -32.4175 L 149.318 -32.6284 L 149.64 -32.8403 L 149.962 -33.0531 L 150.285 -33.2668 L 150.607 -33.4814 L 150.93 -33.697 L 151.253 -33.9134 L 151.575 -34.1308 L 151.898 -34.3492 L 152.22 -34.5684 L 152.542 -34.7886 L 152.865 -35.0097 L 153.188 -35.2317 L 153.51 -35.4547 L 153.833 -35.6787 L 154.155 -35.9035 L 154.477 -36.1293 L 154.8 -36.3561 L 155.122 -36.5838 L 155.445 -36.8124 L 155.768 -37.042 L 156.09 -37.2726 L 156.413 -37.5041 L 156.735 -37.7365 L 157.057 -37.97 L 157.38 -38.2044 L 157.702 -38.4397 L 158.025 -38.676 L 158.348 -38.9133 L 158.67 -39.1515 L 158.992 -39.3907 L 159.315 -39.6309 L 159.637 -39.8721 L 159.96 -40.1142 L 160.283 -40.3573 L 160.605 -40.6014 L 160.928 -40.8465 L 161.25 -41.0926 L 161.572 -41.3396 L 161.895 -41.5877 L 162.217 -41.8367 L 162.54 -42.0867 L 162.863 -42.3377 L 163.185 -42.5897 L 163.508 -42.8427 L 163.83 -43.0967 L 164.152 -43.3518 L 164.475 -43.6078 L 164.798 -43.8648 L 165.12 -44.1228 L 165.443 -44.3819 L 165.765 -44.6419 L 166.087 -44.903 L 166.41 -45.165 L 166.732 -45.4281 L 167.055 -45.6923 L 167.378 -45.9574 L 167.7 -46.2236 L 168.023 -46.4907 L 168.345 -46.759 L 168.667 -47.0282 L 168.99 -47.2985 L 169.313 -47.5698 L 169.635 -47.8421 L 169.958 -48.1155 L 170.28 -48.3899 L 170.602 -48.6654 L 170.925 -48.9419 L 171.247 -49.2195 L 171.57 -49.4981 L 171.893 -49.7777 L 172.215 -50.0584 L 172.538 -50.3402 L 172.86 -50.623 L 173.182 -50.9068 L 173.505 -51.1918 L 173.827 -51.4778 L 174.15 -51.7648 L 174.473 -52.0529 L 174.795 -52.3421 L 175.117 -52.6324 L 175.44 -52.9237 L 175.762 -53.2161 L 176.085 -53.5095 L 176.408 -53.8041 L 176.73 -54.0997 L 177.053 -54.3964 L 177.375 -54.6942 L 177.697 -54.9931 L 178.02 -55.2931 L 178.342 -55.5941 L 178.665 -55.8962 L 178.988 -56.1995 L 179.31 -56.5038 L 179.633 -56.8092 L 179.955 -57.1158 L 180.277 -57.4234 L 180.6 -57.7321 L 180.923 -58.0419 L 181.245 -58.3529 L 181.568 -58.6649 L 181.89 -58.9781 L 182.212 -59.2924 L 182.535 -59.6077 L 182.857 -59.9242 L 183.18 -60.2419 L 183.503 -60.5606 L 183.825 -60.8805 L 184.148 -61.2014 L 184.47 -61.5236 L 184.792 -61.8468 L 185.115 -62.1712 L 185.438 -62.4967 L 185.76 -62.8233 L 186.083 -63.1511 L 186.405 -63.48 L 186.727 -63.81 L 187.05 -64.1412 L 187.372 -64.4736 L 187.695 -64.8071 L 188.018 -65.1417 L 188.34 -65.4775 L 188.663 -65.8144 L 188.985 -66.1525 L 189.307 -66.4917 L 189.63 -66.8321 L 189.952 -67.1737 L 190.275 -67.5164 L 190.598 -67.8603 L 190.92 -68.2054 L 191.242 -68.5516 L 191.565 -68.899 L 191.887 -69.2475 L 192.21 -69.5973 L 192.533 -69.9482 L 192.855 -70.3003 L 193.178 -70.6535 L 193.5 -71.008 L 193.822 -71.3636 L 194.145 -71.7204 L 194.467 -72.0784 L 194.79 -72.4376 L 195.113 -72.798 L 195.435 -73.1596 L 195.758 -73.5224 L 196.08 -73.8863 L 196.402 -74.2515 L 196.725 -74.6179 L 197.048 -74.9855 L 197.37 -75.3542 L 197.693 -75.7242 L 198.015 -76.0954 L 198.337 -76.4678 L 198.66 -76.8414 L 198.982 -77.2163 L 199.305 -77.5923 L 199.628 -77.9696 L 199.95 -78.3481 L 200.273 -78.7278 L 200.595 -79.1087 L 200.917 -79.4909 L 201.24 -79.8743 L 201.563 -80.2589 L 201.885 -80.6448 L 202.208 -81.0319 L 202.53 -81.4202 L 202.852 -81.8098 L 203.175 -82.2006 L 203.497 -82.5927 L 203.82 -82.986 L 204.143 -83.3805 L 204.465 -83.7763 L 204.788 -84.1733 L 205.11 -84.5716 L 205.432 -84.9712 L 205.755 -85.372 L 206.077 -85.7741 L 206.4 -86.1774 L 206.723 -86.582 L 207.045 -86.9878 L 207.367 -87.3949 L 207.69 -87.8033 L 208.012 -88.213 L 208.335 -88.6239 L 208.658 -89.0361 L 208.98 -89.4496 L 209.303 -89.8644 L 209.625 -90.2804 L 209.947 -90.6977 L 210.27 -91.1163 L 210.592 -91.5362 L 210.915 -91.9574 L 211.238 -92.3799 L 211.56 -92.8036 L 211.883 -93.2287 L 212.205 -93.655 L 212.527 -94.0827 L 212.85 -94.5116 L 213.173 -94.9419 L 213.495 -95.3734 L 213.818 -95.8063 L 214.14 -96.2404 L 214.462 -96.6759 L 214.785 -97.1127 L 215.107 -97.5508 L 215.43 -97.9902 L 215.753 -98.431 L 216.075 -98.873 L 216.398 -99.3164 L 216.72 -99.7611 L 217.042 -100.207 L 217.365 -100.654 L 217.688 -101.103 L 218.01 -101.553 L 218.333 -102.005 L 218.655 -102.457 L 218.977 -102.911 L 219.3 -103.367 L 219.622 -103.823 L 219.945 -104.281 L 220.268 -104.741 L 220.59 -105.201 L 220.913 -105.664 L 221.235 -106.127 L 221.557 -106.592 L 221.88 -107.058 L 222.202 -107.525 L 222.525 -107.994 L 222.848 -108.464 L 223.17 -108.936 L 223.492 -109.409 L 223.815 -109.883 L 224.137 -110.359 L 224.46 -110.836 L 224.783 -111.314 L 225.105 -111.794 L 225.428 -112.275 L 225.75 -112.758 L 226.072 -113.242 L 226.395 -113.727 L 226.717 -114.214 L 227.04 -114.702 L 227.363 -115.192 L 227.685 -115.682 L 228.008 -116.175 L 228.33 -116.668 L 228.652 -117.163 L 228.975 -117.66 L 229.298 -118.158 L 229.62 -118.657 L 229.943 -119.158 L 230.265 -119.66 L 230.587 -120.163 L 230.91 -120.668 L 231.232 -121.174 L 231.555 -121.682 L 231.878 -122.191 L 232.2 -122.702 L 232.523 -123.214 L 232.845 -123.727 L 233.167 -124.242 L 233.49 -124.758 L 233.813 -125.276 L 234.135 -125.795 L 234.458 -126.315 L 234.78 -126.837 L 235.102 -127.361 L 235.425 -127.886 L 235.747 -128.412 L 236.07 -128.94 L 236.393 -129.469 L 236.715 -129.999 L 237.038 -130.532 L 237.36 -131.065 L 237.682 -131.6 L 238.005 -132.136 L 238.327 -132.674 L 238.65 -133.214 L 238.973 -133.754 L 239.295 -134.297 L 239.617 -134.84 L 239.94 -135.386 L 240.262 -135.932 L 240.585 -136.48 L 240.908 -137.03 L 241.23 -137.581 L 241.553 -138.133 L 241.875 -138.687 L 242.197 -139.243 L 242.52 -139.8 L 242.842 -140.358 L 243.165 -140.918 L 243.488 -141.48 L 243.81 -142.043 L 244.133 -142.607 L 244.455 -143.173 L 244.777 -143.74 L 245.1 -144.309 L 245.423 -144.88 L 245.745 -145.452 L 246.068 -146.025 L 246.39 -146.6 L 246.712 -147.176 L 247.035 -147.754 L 247.357 -148.334 L 247.68 -148.915 L 248.003 -149.497 L 248.325 -150.081 L 248.648 -150.666 L 248.97 -151.253 L 249.292 -151.842 L 249.615 -152.432 L 249.938 -153.024 L 250.26 -153.617 L 250.583 -154.211 L 250.905 -154.808 L 251.227 -155.405 L 251.55 -156.005 L 251.872 -156.605 L 252.195 -157.208 L 252.518 -157.812 L 252.84 -158.417 L 253.163 -159.024 L 253.485 -159.632 L 253.807 -160.242 L 254.13 -160.854 L 254.452 -161.467 L 254.775 -162.082 L 255.098 -162.698 L 255.42 -163.316 L 255.742 -163.935 L 256.065 -164.556 L 256.388 -165.179 L 256.71 -165.803 L 257.033 -166.429 L 257.355 -167.056 L 257.677 -167.685 L 258 -168.315 L 258.323 -168.947 L 258.645 -169.581 L 258.967 -170.216 L 259.29 -170.853 L 259.612 -171.491 L 259.935 -172.131 L 260.258 -172.772 L 260.58 -173.415 L 260.902 -174.06 L 261.225 -174.706 L 261.547 -175.354 L 261.87 -176.004 L 262.193 -176.655 L 262.515 -177.307 L 262.837 -177.962 L 263.16 -178.617 L 263.483 -179.275 L 263.805 -179.934 L 264.128 -180.595 L 264.45 -181.257 L 264.772 -181.921 L 265.095 -182.587 L 265.418 -183.254 L 265.74 -183.923 L 266.063 -184.593 L 266.385 -185.265 L 266.707 -185.939 L 267.03 -186.614 L 267.353 -187.291 L 267.675 -187.97 L 267.997 -188.65 L 268.32 -189.332 L 268.642 -190.015 L 268.965 -190.7 L 269.288 -191.387 L 269.61 -192.076 L 269.932 -192.766 L 270.255 -193.457 L 270.578 -194.151 L 270.9 -194.846 L 271.223 -195.543 L 271.545 -196.241 L 271.867 -196.941 L 272.19 -197.643 L 272.513 -198.346 L 272.835 -199.051 L 273.158 -199.758 L 273.48 -200.466 L 273.802 -201.176 L 274.125 -201.888 L 274.448 -202.601 L 274.77 -203.316 L 275.092 -204.033 L 275.415 -204.751 L 275.737 -205.472 L 276.06 -206.193 L 276.383 -206.917 L 276.705 -207.642 L 277.027 -208.369 L 277.35 -209.097 L 277.672 -209.828 L 277.995 -210.56 L 278.318 -211.293 L 278.64 -212.029 L 278.962 -212.766 L 279.285 -213.505 L 279.608 -214.245 L 279.93 -214.987 L 280.253 -215.731 L 280.575 -216.477 L 280.897 -217.224 L 281.22 -217.973 L 281.543 -218.724 L 281.865 -219.476 L 282.188 -220.231 L 282.51 -220.986 L 282.832 -221.744 L 283.155 -222.504 L 283.478 -223.265 L 283.8 -224.028 L 284.122 -224.792 L 284.445 -225.558 L 284.767 -226.327 L 285.09 -227.096 L 285.413 -227.868 L 285.735 -228.641 L 286.057 -229.416 L 286.38 -230.193 L 286.703 -230.972 L 287.025 -231.752 L 287.348 -232.534 L 287.67 -233.318 L 287.992 -234.103 L 288.315 -234.891 L 288.638 -235.68 L 288.96 -236.471 L 289.283 -237.263 L 289.605 -238.058 L 289.927 -238.854 L 290.25 -239.652 L 290.573 -240.452 L 290.895 -241.253 L 291.217 -242.056 L 291.54 -242.861 L 291.862 -243.668 L 292.185 -244.477 L 292.508 -245.287 L 292.83 -246.1 L 293.152 -246.914 L 293.475 -247.729 L 293.797 -248.547 L 294.12 -249.366 L 294.443 -250.188 L 294.765 -251.011 L 295.087 -251.835 L 295.41 -252.662 L 295.733 -253.49 L 296.055 -254.321 L 296.378 -255.153 L 296.7 -255.986 L 297.022 -256.822 L 297.345 -257.659 L 297.668 -258.499 L 297.99 -259.34 L 298.313 -260.183 L 298.635 -261.028 L 298.957 -261.874 L 299.28 -262.723 L 299.603 -263.573 L 299.925 -264.425 L 300.247 -265.279 L 300.57 -266.134 L 300.892 -266.992 L 301.215 -267.851 L 301.538 -268.713 L 301.86 -269.576 L 302.182 -270.441 L 302.505 -271.308 L 302.828 -272.176 L 303.15 -273.047 L 303.473 -273.919 L 303.795 -274.793 L 304.117 -275.669 L 304.44 -276.547 L 304.763 -277.427 L 305.085 -278.309 L 305.408 -279.192 L 305.73 -280.078 L 306.052 -280.965 L 306.375 -281.854 L 306.698 -282.745 L 307.02 -283.638 L 307.342 -284.533 L 307.665 -285.429 L 307.987 -286.328 L 308.31 -287.228 L 308.633 -288.13 L 308.955 -289.035 L 309.277 -289.941 L 309.6 -290.849 L 309.922 -291.759 L 310.245 -292.67 L 310.568 -293.584 L 310.89 -294.499 L 311.212 -295.417 L 311.535 -296.336 L 311.858 -297.257 L 312.18 -298.181 L 312.503 -299.106 L 312.825 -300.033 L 313.147 -300.962 L 313.47 -301.892 L 313.793 -302.825 L 314.115 -303.76 L 314.438 -304.696 L 314.76 -305.635 L 315.082 -306.575 L 315.405 -307.518 L 315.728 -308.462 L 316.05 -309.408 L 316.372 -310.356 L 316.695 -311.306 L 317.017 -312.258 L 317.34 -313.212 L 317.663 -314.168 L 317.985 -315.126 L 318.307 -316.086 L 318.63 -317.047 L 318.953 -318.011 L 319.275 -318.977 L 319.598 -319.944 L 319.92 -320.914 L 320.242 -321.885 L 320.565 -322.859 L 320.888 -323.834 L 321.21 -324.811 L 321.533 -325.791 L 321.855 -326.772 L 322.177 -327.755" /><circle fill="rgb(0, 114, 253)" stroke="none" cx="0" cy="0" r="5" y="16" x="375" /></g></svg>/g></svg>